<?xml version="1.0" encoding="UTF-8" standalone="no"?>
<!-- Created with Bouml (http://bouml.free.fr/) -->
<!DOCTYPE svg PUBLIC "-//W3C//DTD SVG 1.1//EN" "http://www.w3.org/Graphics/SVG/1.1/DTD/svg11.dtd">
<svg width="895" height="837" version="1.1" xmlns="http://www.w3.org/2000/svg">
<g>
	<rect fill="#808080" stroke="none" stroke-opacity="1" x="452" y="413" width="3" height="35" />
	<rect fill="#808080" stroke="none" stroke-opacity="1" x="280" y="445" width="175" height="3" />
	<rect fill="#ffffc0" stroke="black" stroke-width="1" stroke-opacity="1" x="276" y="409" width="176" height="36" />
	<text font-family="Helvetica" font-size="9" fill="#000000" xml:space="preserve" font-weight="bold" font-style="italic" text-anchor="middle" x="364" y="420">AbstractReversibleOperation</text>
	<line stroke="black" stroke-opacity="1" x1="276" y1="429" x2="452" y2="429" />
	<line stroke="black" stroke-opacity="1" x1="276" y1="437" x2="452" y2="437" />
</g>
<g>
	<rect fill="#808080" stroke="none" stroke-opacity="1" x="814" y="374" width="3" height="119" />
	<rect fill="#808080" stroke="none" stroke-opacity="1" x="610" y="490" width="207" height="3" />
	<rect fill="#ffffc0" stroke="black" stroke-width="1" stroke-opacity="1" x="606" y="370" width="208" height="120" />
	<text font-family="Helvetica" font-size="9" fill="#000000" xml:space="preserve" font-weight="bold" text-anchor="middle" x="710" y="381">TermWrapper</text>
	<line stroke="black" stroke-opacity="1" x1="606" y1="390" x2="814" y2="390" />
	<line stroke="black" stroke-opacity="1" x1="606" y1="398" x2="814" y2="398" />
	<text font-family="Helvetica" font-size="9" fill="#000000" xml:space="preserve" font-weight="bold" x="610" y="409">+</text>
	<text font-family="Helvetica" font-size="9" fill="#000000" xml:space="preserve" x="624" y="409">Term getRootTerm() </text>
	<text font-family="Helvetica" font-size="9" fill="#000000" xml:space="preserve" font-weight="bold" x="610" y="427">+</text>
	<text font-family="Helvetica" font-size="9" fill="#000000" xml:space="preserve" x="624" y="427">void setRootTerm(Term rootTerm) </text>
	<text font-family="Helvetica" font-size="9" fill="#000000" xml:space="preserve" font-weight="bold" x="610" y="445">+</text>
	<text font-family="Helvetica" font-size="9" fill="#000000" xml:space="preserve" x="624" y="445">String getName() </text>
	<text font-family="Helvetica" font-size="9" fill="#000000" xml:space="preserve" font-weight="bold" x="610" y="463">+</text>
	<text font-family="Helvetica" font-size="9" fill="#000000" xml:space="preserve" x="624" y="463">int hashCode() </text>
	<text font-family="Helvetica" font-size="9" fill="#000000" xml:space="preserve" font-weight="bold" x="610" y="481">+</text>
	<text font-family="Helvetica" font-size="9" fill="#000000" xml:space="preserve" x="624" y="481">boolean equals(Object obj) </text>
</g>
<g>
	<ellipse fill="#ffffc0" stroke="black" stroke-width="1" stroke-opacity="1" cx="367" cy="235" rx="10" ry="10" />
	<text font-family="Helvetica" font-size="9" fill="#000000" xml:space="preserve" font-weight="bold" text-anchor="middle" x="367" y="256">IReversibleOperation</text>
	<line stroke="black" stroke-opacity="1" x1="71" y1="265" x2="663" y2="265" />
	<line stroke="black" stroke-opacity="1" x1="71" y1="273" x2="663" y2="273" />
	<text font-family="Helvetica" font-size="9" fill="#000000" xml:space="preserve" font-weight="bold" x="75" y="284">+</text>
	<text font-family="Helvetica" font-size="9" fill="#000000" xml:space="preserve" x="89" y="284">Term getRootTerm() </text>
	<text font-family="Helvetica" font-size="9" fill="#000000" xml:space="preserve" font-weight="bold" x="75" y="302">+</text>
	<text font-family="Helvetica" font-size="9" fill="#000000" xml:space="preserve" x="89" y="302">void setRootTerm(Term rootTerm) </text>
	<text font-family="Helvetica" font-size="9" fill="#000000" xml:space="preserve" font-weight="bold" x="75" y="320">+</text>
	<text font-family="Helvetica" font-size="9" fill="#000000" xml:space="preserve" x="89" y="320">AbstractValue reverseAll(AbstractValue result, List&lt;AbstractValue&gt; args, Boolean firstArgumentIsKnown) </text>
</g>
<g>
	<rect fill="#808080" stroke="none" stroke-opacity="1" x="660" y="503" width="3" height="65" />
	<rect fill="#808080" stroke="none" stroke-opacity="1" x="72" y="565" width="591" height="3" />
	<rect fill="#ffffc0" stroke="black" stroke-width="1" stroke-opacity="1" x="68" y="499" width="592" height="66" />
	<text font-family="Helvetica" font-size="9" fill="#000000" xml:space="preserve" font-weight="bold" font-style="italic" text-anchor="middle" x="364" y="510">AbstractIntegerOperation</text>
	<line stroke="black" stroke-opacity="1" x1="68" y1="519" x2="660" y2="519" />
	<line stroke="black" stroke-opacity="1" x1="68" y1="527" x2="660" y2="527" />
	<text font-family="Helvetica" font-size="9" fill="#000000" xml:space="preserve" font-weight="bold" x="72" y="538">+</text>
	<text font-family="Helvetica" font-size="9" fill="#000000" xml:space="preserve" x="86" y="538">AbstractValue reverseAll(AbstractValue result, List&lt;AbstractValue&gt; args, Boolean firstArgumentIsKnown) </text>
	<text font-family="Helvetica" font-size="9" fill="#000000" xml:space="preserve" font-weight="bold" x="72" y="556">+</text>
	<text font-family="Helvetica" font-size="9" fill="#000000" xml:space="preserve" x="86" y="556">AbstractValue evaluate(AbstractValue arg1, AbstractValue arg2, Operator operator) </text>
</g>
<g>
	<line stroke="black" stroke-opacity="1" x1="456" y1="429" x2="599" y2="429" />
	<line stroke="black" stroke-opacity="1" x1="605" y1="430" x2="599" y2="423" />
	<line stroke="black" stroke-opacity="1" x1="605" y1="430" x2="598" y2="435" />
	<line stroke="black" stroke-opacity="1" x1="599" y1="423" x2="598" y2="435" />
</g>
<g>
	<line stroke-dasharray="4,4" stroke="black" stroke-opacity="1" x1="366" y1="408" x2="366" y2="335" />
	<line stroke="black" stroke-opacity="1" x1="366" y1="329" x2="360" y2="335" />
	<line stroke="black" stroke-opacity="1" x1="366" y1="329" x2="372" y2="335" />
	<line stroke="black" stroke-opacity="1" x1="360" y1="335" x2="372" y2="335" />
</g>
<g>
	<line stroke="black" stroke-opacity="1" x1="366" y1="498" x2="366" y2="455" />
	<line stroke="black" stroke-opacity="1" x1="366" y1="449" x2="360" y2="455" />
	<line stroke="black" stroke-opacity="1" x1="366" y1="449" x2="372" y2="455" />
	<line stroke="black" stroke-opacity="1" x1="360" y1="455" x2="372" y2="455" />
</g>
<g>
	<ellipse fill="#ffffc0" stroke="black" stroke-width="1" stroke-opacity="1" cx="366" cy="125" rx="10" ry="10" />
	<text font-family="Helvetica" font-size="9" fill="#000000" xml:space="preserve" font-weight="bold" text-anchor="middle" x="366" y="146">IEvaluator</text>
	<line stroke="black" stroke-opacity="1" x1="12" y1="155" x2="720" y2="155" />
	<line stroke="black" stroke-opacity="1" x1="12" y1="163" x2="720" y2="163" />
	<text font-family="Helvetica" font-size="9" fill="#000000" xml:space="preserve" font-weight="bold" x="16" y="174">+</text>
	<text font-family="Helvetica" font-size="9" fill="#000000" xml:space="preserve" x="30" y="174">AbstractValue evaluate(Term term, EvaluationManager evaluationManager, Map&lt;TermWrapper, AbstractValue&gt; assignments) </text>
</g>
<g>
	<rect fill="#808080" stroke="none" stroke-opacity="1" x="879" y="679" width="3" height="65" />
	<rect fill="#808080" stroke="none" stroke-opacity="1" x="175" y="741" width="707" height="3" />
	<rect fill="#ffffc0" stroke="black" stroke-width="1" stroke-opacity="1" x="171" y="675" width="708" height="66" />
	<text font-family="Helvetica" font-size="9" fill="#000000" xml:space="preserve" font-weight="bold" text-anchor="middle" x="525" y="686">MultiplicationEval</text>
	<line stroke="black" stroke-opacity="1" x1="171" y1="695" x2="879" y2="695" />
	<line stroke="black" stroke-opacity="1" x1="171" y1="703" x2="879" y2="703" />
	<text font-family="Helvetica" font-size="9" fill="#000000" xml:space="preserve" font-weight="bold" x="175" y="714">+</text>
	<text font-family="Helvetica" font-size="9" fill="#000000" xml:space="preserve" x="189" y="714">AbstractValue evaluate(Term term, EvaluationManager evaluationManager, Map&lt;TermWrapper, AbstractValue&gt; assignments) </text>
	<text font-family="Helvetica" font-size="9" fill="#000000" xml:space="preserve" font-weight="bold" x="175" y="732">+</text>
	<text font-family="Helvetica" font-size="9" fill="#000000" xml:space="preserve" x="189" y="732">String validate(Object term) </text>
</g>
<g>
	<line stroke="black" stroke-opacity="1" x1="366" y1="224" x2="366" y2="189" />
	<line stroke="black" stroke-opacity="1" x1="366" y1="183" x2="360" y2="189" />
	<line stroke="black" stroke-opacity="1" x1="366" y1="183" x2="372" y2="189" />
	<line stroke="black" stroke-opacity="1" x1="360" y1="189" x2="372" y2="189" />
</g>
<g>
	<line stroke="black" stroke-opacity="1" x1="170" y1="710" x2="108" y2="710" />
</g>
<g>
	<line stroke="black" stroke-opacity="1" x1="108" y1="710" x2="108" y2="575" />
	<line stroke="black" stroke-opacity="1" x1="108" y1="569" x2="102" y2="575" />
	<line stroke="black" stroke-opacity="1" x1="108" y1="569" x2="114" y2="575" />
	<line stroke="black" stroke-opacity="1" x1="102" y1="575" x2="114" y2="575" />
</g>
<g>
	<rect fill="#808080" stroke="none" stroke-opacity="1" x="877" y="598" width="3" height="65" />
	<rect fill="#808080" stroke="none" stroke-opacity="1" x="173" y="660" width="707" height="3" />
	<rect fill="#ffffc0" stroke="black" stroke-width="1" stroke-opacity="1" x="169" y="594" width="708" height="66" />
	<text font-family="Helvetica" font-size="9" fill="#000000" xml:space="preserve" font-weight="bold" text-anchor="middle" x="523" y="605">AdditionEval</text>
	<line stroke="black" stroke-opacity="1" x1="169" y1="614" x2="877" y2="614" />
	<line stroke="black" stroke-opacity="1" x1="169" y1="622" x2="877" y2="622" />
	<text font-family="Helvetica" font-size="9" fill="#000000" xml:space="preserve" font-weight="bold" x="173" y="633">+</text>
	<text font-family="Helvetica" font-size="9" fill="#000000" xml:space="preserve" x="187" y="633">AbstractValue evaluate(Term term, EvaluationManager evaluationManager, Map&lt;TermWrapper, AbstractValue&gt; assignments) </text>
	<text font-family="Helvetica" font-size="9" fill="#000000" xml:space="preserve" font-weight="bold" x="173" y="651">+</text>
	<text font-family="Helvetica" font-size="9" fill="#000000" xml:space="preserve" x="187" y="651">String validate(Object obj) </text>
</g>
<g>
	<ellipse fill="#ffffc0" stroke="black" stroke-width="1" stroke-opacity="1" cx="366" cy="23" rx="10" ry="10" />
	<text font-family="Helvetica" font-size="9" fill="#000000" xml:space="preserve" font-weight="bold" text-anchor="middle" x="366" y="44">IValidator</text>
	<line stroke="black" stroke-opacity="1" x1="283" y1="53" x2="449" y2="53" />
	<line stroke="black" stroke-opacity="1" x1="283" y1="61" x2="449" y2="61" />
	<text font-family="Helvetica" font-size="9" fill="#000000" xml:space="preserve" font-weight="bold" x="287" y="72">+</text>
	<text font-family="Helvetica" font-size="9" fill="#000000" xml:space="preserve" x="301" y="72">String validate(Object obj) </text>
</g>
<g>
	<line stroke="black" stroke-opacity="1" x1="168" y1="594" x2="109" y2="594" />
</g>
<g>
	<line stroke="black" stroke-opacity="1" x1="109" y1="594" x2="109" y2="575" />
	<line stroke="black" stroke-opacity="1" x1="109" y1="569" x2="103" y2="575" />
	<line stroke="black" stroke-opacity="1" x1="109" y1="569" x2="115" y2="575" />
	<line stroke="black" stroke-opacity="1" x1="103" y1="575" x2="115" y2="575" />
</g>
<g>
	<line stroke="black" stroke-opacity="1" x1="366" y1="114" x2="366" y2="87" />
	<line stroke="black" stroke-opacity="1" x1="366" y1="81" x2="360" y2="87" />
	<line stroke="black" stroke-opacity="1" x1="366" y1="81" x2="372" y2="87" />
	<line stroke="black" stroke-opacity="1" x1="360" y1="87" x2="372" y2="87" />
</g>
<g>
	<rect fill="#808080" stroke="none" stroke-opacity="1" x="877" y="759" width="3" height="65" />
	<rect fill="#808080" stroke="none" stroke-opacity="1" x="173" y="821" width="707" height="3" />
	<rect fill="#ffffc0" stroke="black" stroke-width="1" stroke-opacity="1" x="169" y="755" width="708" height="66" />
	<text font-family="Helvetica" font-size="9" fill="#000000" xml:space="preserve" font-weight="bold" text-anchor="middle" x="523" y="766">SubtractionEval</text>
	<line stroke="black" stroke-opacity="1" x1="169" y1="775" x2="877" y2="775" />
	<line stroke="black" stroke-opacity="1" x1="169" y1="783" x2="877" y2="783" />
	<text font-family="Helvetica" font-size="9" fill="#000000" xml:space="preserve" font-weight="bold" x="173" y="794">+</text>
	<text font-family="Helvetica" font-size="9" fill="#000000" xml:space="preserve" x="187" y="794">AbstractValue evaluate(Term term, EvaluationManager evaluationManager, Map&lt;TermWrapper, AbstractValue&gt; assignments) </text>
	<text font-family="Helvetica" font-size="9" fill="#000000" xml:space="preserve" font-weight="bold" x="173" y="812">+</text>
	<text font-family="Helvetica" font-size="9" fill="#000000" xml:space="preserve" x="187" y="812">String validate(Object term) </text>
</g>
<g>
	<line stroke="black" stroke-opacity="1" x1="168" y1="789" x2="108" y2="789" />
</g>
<g>
	<line stroke="black" stroke-opacity="1" x1="108" y1="789" x2="108" y2="574" />
	<line stroke="black" stroke-opacity="1" x1="109" y1="569" x2="102" y2="574" />
	<line stroke="black" stroke-opacity="1" x1="109" y1="569" x2="114" y2="575" />
	<line stroke="black" stroke-opacity="1" x1="102" y1="574" x2="114" y2="575" />
</g>
</svg>
