<?xml version="1.0" encoding="UTF-8" standalone="no"?>
<!-- Created with Bouml (http://bouml.free.fr/) -->
<!DOCTYPE svg PUBLIC "-//W3C//DTD SVG 1.1//EN" "http://www.w3.org/Graphics/SVG/1.1/DTD/svg11.dtd">
<svg width="793" height="627" version="1.1" xmlns="http://www.w3.org/2000/svg">
<g>
	<polygon fill="#c0ffff" stroke="black" stroke-opacity="1" points="507,559 735,559 735,569 745,569 745,615 507,615 507,559" />
	<line stroke="black" stroke-opacity="1" x1="735" y1="559" x2="745" y2="569" />
	<text font-family="Helvetica" font-size="9" fill="#000000" xml:space="preserve" x="517" y="585">values: placeID (String) &lt;-&gt; actual</text>
	<text font-family="Helvetica" font-size="9" fill="#000000" xml:space="preserve" x="517" y="602">inscription value (MSValue)</text>
</g>
<g>
	<rect fill="#808080" stroke="none" stroke-opacity="1" x="678" y="8" width="3" height="125" />
	<rect fill="#808080" stroke="none" stroke-opacity="1" x="400" y="130" width="281" height="3" />
	<rect fill="#ffffc0" stroke="black" stroke-width="1" stroke-opacity="1" x="396" y="4" width="282" height="126" />
	<text font-family="Helvetica" font-size="9" fill="#000000" xml:space="preserve" font-weight="bold" text-anchor="middle" x="537" y="15">TermWrapper</text>
	<line stroke="black" stroke-opacity="1" x1="396" y1="24" x2="678" y2="24" />
	<line stroke="black" stroke-opacity="1" x1="396" y1="32" x2="678" y2="32" />
	<text font-family="Helvetica" font-size="9" fill="#000000" xml:space="preserve" font-weight="bold" x="400" y="43">+</text>
	<text font-family="Helvetica" font-size="9" fill="#000000" xml:space="preserve" x="414" y="43">Term getRootTerm() </text>
	<text font-family="Helvetica" font-size="9" fill="#000000" xml:space="preserve" font-weight="bold" x="400" y="61">+</text>
	<text font-family="Helvetica" font-size="9" fill="#000000" xml:space="preserve" x="414" y="61">void setRootTerm(Term rootTerm) </text>
	<text font-family="Helvetica" font-size="9" fill="#000000" xml:space="preserve" font-weight="bold" x="400" y="79">+</text>
	<text font-family="Helvetica" font-size="9" fill="#000000" xml:space="preserve" x="414" y="79">String getName() </text>
	<text font-family="Helvetica" font-size="9" fill="#000000" xml:space="preserve" font-weight="bold" x="400" y="97">+</text>
	<text font-family="Helvetica" font-size="9" fill="#000000" xml:space="preserve" x="414" y="97">int hashCode() </text>
	<text font-family="Helvetica" font-size="9" fill="#000000" xml:space="preserve" font-weight="bold" x="400" y="115">+</text>
	<text font-family="Helvetica" font-size="9" fill="#000000" xml:space="preserve" x="414" y="115">boolean equals(Object obj) </text>
</g>
<g>
	<rect fill="#808080" stroke="none" stroke-opacity="1" x="767" y="372" width="3" height="155" />
	<rect fill="#808080" stroke="none" stroke-opacity="1" x="415" y="524" width="355" height="3" />
	<rect fill="#ffffc0" stroke="black" stroke-width="1" stroke-opacity="1" x="411" y="368" width="356" height="156" />
	<text font-family="Helvetica" font-size="9" fill="#000000" xml:space="preserve" font-weight="bold" text-anchor="middle" x="589" y="379">FiringMode</text>
	<line stroke="black" stroke-opacity="1" x1="411" y1="388" x2="767" y2="388" />
	<line stroke="black" stroke-opacity="1" x1="411" y1="396" x2="767" y2="396" />
	<text font-family="Helvetica" font-size="9" fill="#000000" xml:space="preserve" font-weight="bold" x="415" y="407">+</text>
	<text font-family="Helvetica" font-size="9" fill="#000000" xml:space="preserve" x="429" y="407">Map&lt;TermWrapper, AbstractValue&gt; getParams() </text>
	<text font-family="Helvetica" font-size="9" fill="#000000" xml:space="preserve" font-weight="bold" x="415" y="425">+</text>
	<text font-family="Helvetica" font-size="9" fill="#000000" xml:space="preserve" x="429" y="425">void setParams(Map&lt;TermWrapper, AbstractValue&gt; params) </text>
	<text font-family="Helvetica" font-size="9" fill="#000000" xml:space="preserve" font-weight="bold" x="415" y="443">+</text>
	<text font-family="Helvetica" font-size="9" fill="#000000" xml:space="preserve" x="429" y="443">Map&lt;String, MSValue&gt; getValues() </text>
	<text font-family="Helvetica" font-size="9" fill="#000000" xml:space="preserve" font-weight="bold" x="415" y="461">+</text>
	<text font-family="Helvetica" font-size="9" fill="#000000" xml:space="preserve" x="429" y="461">void setValues(Map&lt;String, MSValue&gt; values) </text>
	<text font-family="Helvetica" font-size="9" fill="#000000" xml:space="preserve" font-weight="bold" x="415" y="479">+</text>
	<text font-family="Helvetica" font-size="9" fill="#000000" xml:space="preserve" x="429" y="479">String toString() </text>
	<text font-family="Helvetica" font-size="9" fill="#000000" xml:space="preserve" font-weight="bold" x="415" y="497">+</text>
	<text font-family="Helvetica" font-size="9" fill="#000000" xml:space="preserve" x="429" y="497">Transition getTransition() </text>
	<text font-family="Helvetica" font-size="9" fill="#000000" xml:space="preserve" font-weight="bold" x="415" y="515">+</text>
	<text font-family="Helvetica" font-size="9" fill="#000000" xml:space="preserve" x="429" y="515">void setTransition(Transition transition) </text>
</g>
<g>
	<rect fill="#808080" stroke="none" stroke-opacity="1" x="515" y="194" width="3" height="137" />
	<rect fill="#808080" stroke="none" stroke-opacity="1" x="305" y="328" width="213" height="3" />
	<rect fill="#ffffc0" stroke="black" stroke-width="1" stroke-opacity="1" x="301" y="190" width="214" height="138" />
	<text font-family="Helvetica" font-size="9" fill="#000000" xml:space="preserve" font-weight="bold" text-anchor="middle" x="408" y="201">VariableWrapper</text>
	<line stroke="black" stroke-opacity="1" x1="301" y1="210" x2="515" y2="210" />
	<line stroke="black" stroke-opacity="1" x1="301" y1="218" x2="515" y2="218" />
	<text font-family="Helvetica" font-size="9" fill="#000000" xml:space="preserve" font-weight="bold" x="305" y="229">+</text>
	<text font-family="Helvetica" font-size="9" fill="#000000" xml:space="preserve" x="319" y="229">Variable getVariable() </text>
	<text font-family="Helvetica" font-size="9" fill="#000000" xml:space="preserve" font-weight="bold" x="305" y="247">+</text>
	<text font-family="Helvetica" font-size="9" fill="#000000" xml:space="preserve" x="319" y="247">void setVariable(Variable variable) </text>
	<text font-family="Helvetica" font-size="9" fill="#000000" xml:space="preserve" font-weight="bold" x="305" y="265">+</text>
	<text font-family="Helvetica" font-size="9" fill="#000000" xml:space="preserve" x="319" y="265">String getName() </text>
	<text font-family="Helvetica" font-size="9" fill="#000000" xml:space="preserve" font-weight="bold" x="305" y="283">+</text>
	<text font-family="Helvetica" font-size="9" fill="#000000" xml:space="preserve" x="319" y="283">int hashCode() </text>
	<text font-family="Helvetica" font-size="9" fill="#000000" xml:space="preserve" font-weight="bold" x="305" y="301">+</text>
	<text font-family="Helvetica" font-size="9" fill="#000000" xml:space="preserve" x="319" y="301">boolean equals(Object obj) </text>
	<text font-family="Helvetica" font-size="9" fill="#000000" xml:space="preserve" font-weight="bold" x="305" y="319">+</text>
	<text font-family="Helvetica" font-size="9" fill="#000000" xml:space="preserve" x="319" y="319">String toString() </text>
</g>
<g>
	<rect fill="#808080" stroke="none" stroke-opacity="1" x="777" y="201" width="3" height="35" />
	<rect fill="#808080" stroke="none" stroke-opacity="1" x="605" y="233" width="175" height="3" />
	<rect fill="#ffffc0" stroke="black" stroke-width="1" stroke-opacity="1" x="601" y="197" width="176" height="36" />
	<text font-family="Helvetica" font-size="9" fill="#000000" xml:space="preserve" font-weight="bold" font-style="italic" text-anchor="middle" x="689" y="208">AbstractReversibleOperation</text>
	<line stroke="black" stroke-opacity="1" x1="601" y1="217" x2="777" y2="217" />
	<line stroke="black" stroke-opacity="1" x1="601" y1="225" x2="777" y2="225" />
</g>
<g>
	<rect fill="#808080" stroke="none" stroke-opacity="1" x="295" y="9" width="3" height="119" />
	<rect fill="#808080" stroke="none" stroke-opacity="1" x="27" y="125" width="271" height="3" />
	<rect fill="#ffffc0" stroke="black" stroke-width="1" stroke-opacity="1" x="23" y="5" width="272" height="120" />
	<text font-family="Helvetica" font-size="9" fill="#000000" xml:space="preserve" font-weight="bold" text-anchor="middle" x="159" y="16">TermAssignment</text>
	<line stroke="black" stroke-opacity="1" x1="23" y1="25" x2="295" y2="25" />
	<line stroke="black" stroke-opacity="1" x1="23" y1="33" x2="295" y2="33" />
	<text font-family="Helvetica" font-size="9" fill="#000000" xml:space="preserve" font-weight="bold" x="27" y="44">+</text>
	<text font-family="Helvetica" font-size="9" fill="#000000" xml:space="preserve" x="41" y="44">TermWrapper getTermWrapper() </text>
	<text font-family="Helvetica" font-size="9" fill="#000000" xml:space="preserve" font-weight="bold" x="27" y="62">+</text>
	<text font-family="Helvetica" font-size="9" fill="#000000" xml:space="preserve" x="41" y="62">void setTermWrapper(TermWrapper variable) </text>
	<text font-family="Helvetica" font-size="9" fill="#000000" xml:space="preserve" font-weight="bold" x="27" y="80">+</text>
	<text font-family="Helvetica" font-size="9" fill="#000000" xml:space="preserve" x="41" y="80">Set&lt;AbstractValue&gt; getValues() </text>
	<text font-family="Helvetica" font-size="9" fill="#000000" xml:space="preserve" font-weight="bold" x="27" y="98">+</text>
	<text font-family="Helvetica" font-size="9" fill="#000000" xml:space="preserve" x="41" y="98">void setValues(Set&lt;AbstractValue&gt; values) </text>
	<text font-family="Helvetica" font-size="9" fill="#000000" xml:space="preserve" font-weight="bold" x="27" y="116">+</text>
	<text font-family="Helvetica" font-size="9" fill="#000000" xml:space="preserve" x="41" y="116">String toString() </text>
</g>
<g>
	<line stroke="black" stroke-opacity="1" x1="457" y1="189" x2="457" y2="140" />
	<line stroke="black" stroke-opacity="1" x1="457" y1="134" x2="451" y2="140" />
	<line stroke="black" stroke-opacity="1" x1="457" y1="134" x2="463" y2="140" />
	<line stroke="black" stroke-opacity="1" x1="451" y1="140" x2="463" y2="140" />
</g>
<g>
	<text font-family="Helvetica" font-size="9" fill="#000000" xml:space="preserve" x="535" y="259">&lt;&lt;Map&gt;&gt;</text>
</g>
<g>
	<line stroke="black" stroke-opacity="1" x1="670" y1="196" x2="670" y2="140" />
	<line stroke="black" stroke-opacity="1" x1="670" y1="134" x2="664" y2="140" />
	<line stroke="black" stroke-opacity="1" x1="670" y1="134" x2="676" y2="140" />
	<line stroke="black" stroke-opacity="1" x1="664" y1="140" x2="676" y2="140" />
</g>
<g>
	<line stroke="black" stroke-opacity="1" x1="561" y1="134" x2="555" y2="140" />
	<line stroke="black" stroke-opacity="1" x1="561" y1="134" x2="567" y2="139" />
	<line stroke="black" stroke-opacity="1" x1="562" y1="367" x2="561" y2="134" />
</g>
<g>
	<line stroke="black" stroke-opacity="1" x1="395" y1="67" x2="389" y2="61" />
	<line stroke="black" stroke-opacity="1" x1="395" y1="67" x2="389" y2="73" />
	<line stroke="black" stroke-opacity="1" x1="299" y1="67" x2="395" y2="67" />
</g>
<g>
	<line stroke-dasharray="4,4" stroke="black" stroke-opacity="1" x1="618" y1="558" x2="610" y2="528" />
</g>
<g>
	<text font-family="Helvetica" font-size="9" fill="#000000" xml:space="preserve" x="571" y="151">-params</text>
</g>
<g>
	<text font-family="Helvetica" font-size="9" fill="#000000" xml:space="preserve" x="310" y="55">-termWrapper</text>
</g>
<g>
	<text font-family="Helvetica" font-size="9" fill="#000000" xml:space="preserve" x="170" y="330">~values</text>
</g>
<g>
	<text font-family="Helvetica" font-size="9" fill="#000000" xml:space="preserve" x="170" y="218">-values</text>
</g>
<g>
	<text font-family="Helvetica" font-size="9" fill="#000000" xml:space="preserve" x="327" y="436">-values</text>
</g>
<g>
	<rect fill="#808080" stroke="none" stroke-opacity="1" x="313" y="393" width="3" height="119" />
	<rect fill="#808080" stroke="none" stroke-opacity="1" x="7" y="509" width="309" height="3" />
	<rect fill="#ffffc0" stroke="black" stroke-width="1" stroke-opacity="1" x="3" y="389" width="310" height="120" />
	<text font-family="Helvetica" font-size="9" fill="#000000" xml:space="preserve" font-weight="bold" text-anchor="middle" x="158" y="400">MSValue</text>
	<line stroke="black" stroke-opacity="1" x1="3" y1="409" x2="313" y2="409" />
	<line stroke="black" stroke-opacity="1" x1="3" y1="417" x2="313" y2="417" />
	<text font-family="Helvetica" font-size="9" fill="#000000" xml:space="preserve" font-weight="bold" x="7" y="428">+</text>
	<text font-family="Helvetica" font-size="9" fill="#000000" xml:space="preserve" x="21" y="428">Map&lt;AbstractValue, Integer&gt; getValues() </text>
	<text font-family="Helvetica" font-size="9" fill="#000000" xml:space="preserve" font-weight="bold" x="7" y="446">+</text>
	<text font-family="Helvetica" font-size="9" fill="#000000" xml:space="preserve" x="21" y="446">void setValues(Map&lt;AbstractValue, Integer&gt; values) </text>
	<text font-family="Helvetica" font-size="9" fill="#000000" xml:space="preserve" font-weight="bold" x="7" y="464">+</text>
	<text font-family="Helvetica" font-size="9" fill="#000000" xml:space="preserve" x="21" y="464">String toString() </text>
	<text font-family="Helvetica" font-size="9" fill="#000000" xml:space="preserve" font-weight="bold" x="7" y="482">+</text>
	<text font-family="Helvetica" font-size="9" fill="#000000" xml:space="preserve" x="21" y="482">int hashCode() </text>
	<text font-family="Helvetica" font-size="9" fill="#000000" xml:space="preserve" font-weight="bold" x="7" y="500">+</text>
	<text font-family="Helvetica" font-size="9" fill="#000000" xml:space="preserve" x="21" y="500">boolean equals(Object obj) </text>
</g>
<g>
	<text font-family="Helvetica" font-size="9" fill="#000000" xml:space="preserve" x="337" y="457">&lt;&lt;Map&gt;&gt;</text>
</g>
<g>
	<line stroke="black" stroke-opacity="1" x1="317" y1="448" x2="323" y2="454" />
	<line stroke="black" stroke-opacity="1" x1="317" y1="448" x2="323" y2="442" />
	<line stroke="black" stroke-opacity="1" x1="410" y1="448" x2="317" y2="448" />
</g>
<g>
	<rect fill="#808080" stroke="none" stroke-opacity="1" x="229" y="235" width="3" height="77" />
	<rect fill="#808080" stroke="none" stroke-opacity="1" x="91" y="309" width="141" height="3" />
	<rect fill="#ffffc0" stroke="black" stroke-width="1" stroke-opacity="1" x="87" y="231" width="142" height="78" />
	<text font-family="Helvetica" font-size="9" fill="#000000" xml:space="preserve" font-weight="bold" font-style="italic" text-anchor="middle" x="158" y="242">AbstractValue</text>
	<line stroke="black" stroke-opacity="1" x1="87" y1="251" x2="229" y2="251" />
	<text font-family="Helvetica" font-size="9" fill="#000000" xml:space="preserve" font-weight="bold" x="91" y="262">#</text>
	<text font-family="Helvetica" font-size="9" fill="#000000" xml:space="preserve" x="105" y="262">Sort sort</text>
	<line stroke="black" stroke-opacity="1" x1="87" y1="271" x2="229" y2="271" />
	<text font-family="Helvetica" font-size="9" fill="#000000" xml:space="preserve" font-weight="bold" x="91" y="282">+</text>
	<text font-family="Helvetica" font-size="9" fill="#000000" xml:space="preserve" x="105" y="282">Sort getSort() </text>
	<text font-family="Helvetica" font-size="9" fill="#000000" xml:space="preserve" font-weight="bold" x="91" y="300">+</text>
	<text font-family="Helvetica" font-size="9" fill="#000000" xml:space="preserve" x="105" y="300">void setSort(Sort sort) </text>
</g>
<g>
	<text font-family="Helvetica" font-size="9" fill="#000000" xml:space="preserve" x="134" y="359">&lt;&lt;Map&gt;&gt;</text>
</g>
<g>
	<line stroke="black" stroke-opacity="1" x1="160" y1="313" x2="154" y2="319" />
	<line stroke="black" stroke-opacity="1" x1="160" y1="313" x2="166" y2="319" />
	<line stroke="black" stroke-opacity="1" x1="160" y1="388" x2="160" y2="313" />
</g>
<g>
	<text font-family="Helvetica" font-size="9" fill="#000000" xml:space="preserve" x="136" y="188">&lt;&lt;Set&gt;&gt;</text>
</g>
<g>
	<line stroke="black" stroke-opacity="1" x1="97" y1="388" x2="97" y2="319" />
	<line stroke="black" stroke-opacity="1" x1="97" y1="313" x2="91" y2="319" />
	<line stroke="black" stroke-opacity="1" x1="97" y1="313" x2="103" y2="319" />
	<line stroke="black" stroke-opacity="1" x1="91" y1="319" x2="103" y2="319" />
</g>
<g>
	<line stroke="black" stroke-opacity="1" x1="160" y1="230" x2="166" y2="224" />
	<line stroke="black" stroke-opacity="1" x1="160" y1="230" x2="154" y2="224" />
	<line stroke="black" stroke-opacity="1" x1="160" y1="129" x2="160" y2="230" />
</g>
</svg>
