<?xml version="1.0" encoding="UTF-8" standalone="no"?>
<!-- Created with Bouml (http://bouml.free.fr/) -->
<!DOCTYPE svg PUBLIC "-//W3C//DTD SVG 1.1//EN" "http://www.w3.org/Graphics/SVG/1.1/DTD/svg11.dtd">
<svg width="1207" height="698" version="1.1" xmlns="http://www.w3.org/2000/svg">
<g>
	<text font-family="Helvetica" font-size="9" fill="#000000" xml:space="preserve" x="38" y="119">-comparisonManager</text>
</g>
<g>
	<text font-family="Helvetica" font-size="9" fill="#000000" xml:space="preserve" x="502" y="43">-handlers</text>
</g>
<g>
	<text font-family="Helvetica" font-size="9" fill="#000000" xml:space="preserve" x="186" y="117">-comparisonManager</text>
</g>
<g>
	<text font-family="Helvetica" font-size="9" fill="#000000" xml:space="preserve" x="80" y="129">-comparisonManager</text>
</g>
<g>
	<ellipse fill="#ffffc0" stroke="black" stroke-width="1" stroke-opacity="1" cx="880" cy="31" rx="10" ry="10" />
	<text font-family="Helvetica" font-size="9" fill="#000000" xml:space="preserve" font-weight="bold" text-anchor="middle" x="880" y="52">IComparable</text>
	<line stroke="black" stroke-opacity="1" x1="565" y1="61" x2="1195" y2="61" />
	<line stroke="black" stroke-opacity="1" x1="565" y1="69" x2="1195" y2="69" />
	<text font-family="Helvetica" font-size="9" fill="#000000" xml:space="preserve" font-weight="bold" x="569" y="80">+</text>
	<text font-family="Helvetica" font-size="9" fill="#000000" xml:space="preserve" x="583" y="80">boolean compare(Term refValue, AbstractValue testValue, Map&lt;TermWrapper, TermAssignment&gt; assignments) </text>
</g>
<g>
	<rect fill="#808080" stroke="none" stroke-opacity="1" x="755" y="482" width="3" height="47" />
	<rect fill="#808080" stroke="none" stroke-opacity="1" x="129" y="526" width="629" height="3" />
	<rect fill="#ffffc0" stroke="black" stroke-width="1" stroke-opacity="1" x="125" y="478" width="630" height="48" />
	<text font-family="Helvetica" font-size="9" fill="#000000" xml:space="preserve" font-weight="bold" text-anchor="middle" x="440" y="489">DatatypesComparator</text>
	<line stroke="black" stroke-opacity="1" x1="125" y1="498" x2="755" y2="498" />
	<line stroke="black" stroke-opacity="1" x1="125" y1="506" x2="755" y2="506" />
	<text font-family="Helvetica" font-size="9" fill="#000000" xml:space="preserve" font-weight="bold" x="129" y="517">+</text>
	<text font-family="Helvetica" font-size="9" fill="#000000" xml:space="preserve" x="143" y="517">boolean compare(Term refValue, AbstractValue testValue, Map&lt;TermWrapper, TermAssignment&gt; assignments) </text>
</g>
<g>
	<rect fill="#808080" stroke="none" stroke-opacity="1" x="752" y="319" width="3" height="65" />
	<rect fill="#808080" stroke="none" stroke-opacity="1" x="126" y="381" width="629" height="3" />
	<rect fill="#ffffc0" stroke="black" stroke-width="1" stroke-opacity="1" x="122" y="315" width="630" height="66" />
	<text font-family="Helvetica" font-size="9" fill="#000000" xml:space="preserve" font-weight="bold" text-anchor="middle" x="437" y="326">TupleComparator</text>
	<line stroke="black" stroke-opacity="1" x1="122" y1="335" x2="752" y2="335" />
	<line stroke="black" stroke-opacity="1" x1="122" y1="343" x2="752" y2="343" />
	<text font-family="Helvetica" font-size="9" fill="#000000" xml:space="preserve" font-weight="bold" x="126" y="354">+</text>
	<text font-family="Helvetica" font-size="9" fill="#000000" xml:space="preserve" x="140" y="354">TupleComparator(ComparisonManager comparisonManager) </text>
	<text font-family="Helvetica" font-size="9" fill="#000000" xml:space="preserve" font-weight="bold" x="126" y="372">+</text>
	<text font-family="Helvetica" font-size="9" fill="#000000" xml:space="preserve" x="140" y="372">boolean compare(Term refValue, AbstractValue testValue, Map&lt;TermWrapper, TermAssignment&gt; assignments) </text>
</g>
<g>
	<rect fill="#808080" stroke="none" stroke-opacity="1" x="755" y="413" width="3" height="47" />
	<rect fill="#808080" stroke="none" stroke-opacity="1" x="129" y="457" width="629" height="3" />
	<rect fill="#ffffc0" stroke="black" stroke-width="1" stroke-opacity="1" x="125" y="409" width="630" height="48" />
	<text font-family="Helvetica" font-size="9" fill="#000000" xml:space="preserve" font-weight="bold" text-anchor="middle" x="440" y="420">UserOperatorComparator</text>
	<line stroke="black" stroke-opacity="1" x1="125" y1="429" x2="755" y2="429" />
	<line stroke="black" stroke-opacity="1" x1="125" y1="437" x2="755" y2="437" />
	<text font-family="Helvetica" font-size="9" fill="#000000" xml:space="preserve" font-weight="bold" x="129" y="448">+</text>
	<text font-family="Helvetica" font-size="9" fill="#000000" xml:space="preserve" x="143" y="448">boolean compare(Term refValue, AbstractValue testValue, Map&lt;TermWrapper, TermAssignment&gt; assignments) </text>
</g>
<g>
	<rect fill="#808080" stroke="none" stroke-opacity="1" x="757" y="547" width="3" height="47" />
	<rect fill="#808080" stroke="none" stroke-opacity="1" x="131" y="591" width="629" height="3" />
	<rect fill="#ffffc0" stroke="black" stroke-width="1" stroke-opacity="1" x="127" y="543" width="630" height="48" />
	<text font-family="Helvetica" font-size="9" fill="#000000" xml:space="preserve" font-weight="bold" text-anchor="middle" x="442" y="554">VariableComparator</text>
	<line stroke="black" stroke-opacity="1" x1="127" y1="563" x2="757" y2="563" />
	<line stroke="black" stroke-opacity="1" x1="127" y1="571" x2="757" y2="571" />
	<text font-family="Helvetica" font-size="9" fill="#000000" xml:space="preserve" font-weight="bold" x="131" y="582">+</text>
	<text font-family="Helvetica" font-size="9" fill="#000000" xml:space="preserve" x="145" y="582">boolean compare(Term refValue, AbstractValue testValue, Map&lt;TermWrapper, TermAssignment&gt; assignments) </text>
</g>
<g>
	<rect fill="#808080" stroke="none" stroke-opacity="1" x="754" y="227" width="3" height="65" />
	<rect fill="#808080" stroke="none" stroke-opacity="1" x="128" y="289" width="629" height="3" />
	<rect fill="#ffffc0" stroke="black" stroke-width="1" stroke-opacity="1" x="124" y="223" width="630" height="66" />
	<text font-family="Helvetica" font-size="9" fill="#000000" xml:space="preserve" font-weight="bold" text-anchor="middle" x="439" y="234">MultisetComparator</text>
	<line stroke="black" stroke-opacity="1" x1="124" y1="243" x2="754" y2="243" />
	<line stroke="black" stroke-opacity="1" x1="124" y1="251" x2="754" y2="251" />
	<text font-family="Helvetica" font-size="9" fill="#000000" xml:space="preserve" font-weight="bold" x="128" y="262">+</text>
	<text font-family="Helvetica" font-size="9" fill="#000000" xml:space="preserve" x="142" y="262">MultisetComparator(ComparisonManager comparisonManager) </text>
	<text font-family="Helvetica" font-size="9" fill="#000000" xml:space="preserve" font-weight="bold" x="128" y="280">+</text>
	<text font-family="Helvetica" font-size="9" fill="#000000" xml:space="preserve" x="142" y="280">boolean compare(Term refValue, AbstractValue testValue, Map&lt;TermWrapper, TermAssignment&gt; assignments) </text>
</g>
<g>
	<rect fill="#808080" stroke="none" stroke-opacity="1" x="754" y="141" width="3" height="65" />
	<rect fill="#808080" stroke="none" stroke-opacity="1" x="128" y="203" width="629" height="3" />
	<rect fill="#ffffc0" stroke="black" stroke-width="1" stroke-opacity="1" x="124" y="137" width="630" height="66" />
	<text font-family="Helvetica" font-size="9" fill="#000000" xml:space="preserve" font-weight="bold" text-anchor="middle" x="439" y="148">NumberOfComparator</text>
	<line stroke="black" stroke-opacity="1" x1="124" y1="157" x2="754" y2="157" />
	<line stroke="black" stroke-opacity="1" x1="124" y1="165" x2="754" y2="165" />
	<text font-family="Helvetica" font-size="9" fill="#000000" xml:space="preserve" font-weight="bold" x="128" y="176">+</text>
	<text font-family="Helvetica" font-size="9" fill="#000000" xml:space="preserve" x="142" y="176">NumberOfComparator(ComparisonManager comparisonManager) </text>
	<text font-family="Helvetica" font-size="9" fill="#000000" xml:space="preserve" font-weight="bold" x="128" y="194">+</text>
	<text font-family="Helvetica" font-size="9" fill="#000000" xml:space="preserve" x="142" y="194">boolean compare(Term refValue, AbstractValue testValue, Map&lt;TermWrapper, TermAssignment&gt; assignments) </text>
</g>
<g>
	<line stroke-dasharray="4,4" stroke="black" stroke-opacity="1" x1="758" y1="258" x2="878" y2="259" />
</g>
<g>
	<line stroke-dasharray="4,4" stroke="black" stroke-opacity="1" x1="759" y1="502" x2="879" y2="502" />
</g>
<g>
	<line stroke-dasharray="4,4" stroke="black" stroke-opacity="1" x1="761" y1="566" x2="878" y2="566" />
</g>
<g>
	<line stroke-dasharray="4,4" stroke="black" stroke-opacity="1" x1="756" y1="350" x2="879" y2="350" />
</g>
<g>
	<line stroke-dasharray="4,4" stroke="black" stroke-opacity="1" x1="759" y1="433" x2="879" y2="433" />
</g>
<g>
	<line stroke-dasharray="4,4" stroke="black" stroke-opacity="1" x1="758" y1="171" x2="879" y2="171" />
</g>
<g>
	<line stroke-dasharray="4,4" stroke="black" stroke-opacity="1" x1="878" y1="259" x2="878" y2="94" />
	<line stroke="black" stroke-opacity="1" x1="879" y1="89" x2="872" y2="94" />
	<line stroke="black" stroke-opacity="1" x1="879" y1="89" x2="884" y2="95" />
	<line stroke="black" stroke-opacity="1" x1="872" y1="94" x2="884" y2="95" />
</g>
<g>
	<line stroke-dasharray="4,4" stroke="black" stroke-opacity="1" x1="879" y1="502" x2="879" y2="95" />
	<line stroke="black" stroke-opacity="1" x1="879" y1="89" x2="873" y2="95" />
	<line stroke="black" stroke-opacity="1" x1="879" y1="89" x2="885" y2="95" />
	<line stroke="black" stroke-opacity="1" x1="873" y1="95" x2="885" y2="95" />
</g>
<g>
	<line stroke-dasharray="4,4" stroke="black" stroke-opacity="1" x1="879" y1="171" x2="879" y2="95" />
	<line stroke="black" stroke-opacity="1" x1="879" y1="89" x2="873" y2="95" />
	<line stroke="black" stroke-opacity="1" x1="879" y1="89" x2="885" y2="95" />
	<line stroke="black" stroke-opacity="1" x1="873" y1="95" x2="885" y2="95" />
</g>
<g>
	<line stroke-dasharray="4,4" stroke="black" stroke-opacity="1" x1="879" y1="433" x2="879" y2="95" />
	<line stroke="black" stroke-opacity="1" x1="879" y1="89" x2="873" y2="95" />
	<line stroke="black" stroke-opacity="1" x1="879" y1="89" x2="885" y2="95" />
	<line stroke="black" stroke-opacity="1" x1="873" y1="95" x2="885" y2="95" />
</g>
<g>
	<line stroke-dasharray="4,4" stroke="black" stroke-opacity="1" x1="878" y1="566" x2="878" y2="94" />
	<line stroke="black" stroke-opacity="1" x1="879" y1="89" x2="872" y2="94" />
	<line stroke="black" stroke-opacity="1" x1="879" y1="89" x2="884" y2="95" />
	<line stroke="black" stroke-opacity="1" x1="872" y1="94" x2="884" y2="95" />
</g>
<g>
	<line stroke-dasharray="4,4" stroke="black" stroke-opacity="1" x1="879" y1="350" x2="879" y2="95" />
	<line stroke="black" stroke-opacity="1" x1="879" y1="89" x2="873" y2="95" />
	<line stroke="black" stroke-opacity="1" x1="879" y1="89" x2="885" y2="95" />
	<line stroke="black" stroke-opacity="1" x1="873" y1="95" x2="885" y2="95" />
</g>
<g>
	<rect fill="#808080" stroke="none" stroke-opacity="1" x="353" y="18" width="3" height="83" />
	<rect fill="#808080" stroke="none" stroke-opacity="1" x="11" y="98" width="345" height="3" />
	<rect fill="#ffffc0" stroke="black" stroke-width="1" stroke-opacity="1" x="7" y="14" width="346" height="84" />
	<text font-family="Helvetica" font-size="9" fill="#000000" xml:space="preserve" font-weight="bold" text-anchor="middle" x="180" y="25">ComparisonManager</text>
	<line stroke="black" stroke-opacity="1" x1="7" y1="34" x2="353" y2="34" />
	<line stroke="black" stroke-opacity="1" x1="7" y1="42" x2="353" y2="42" />
	<text font-family="Helvetica" font-size="9" fill="#000000" xml:space="preserve" font-weight="bold" x="11" y="53">+</text>
	<text font-family="Helvetica" font-size="9" fill="#000000" xml:space="preserve" x="25" y="53">void register(Object targetObject, IComparable comparator) </text>
	<text font-family="Helvetica" font-size="9" fill="#000000" xml:space="preserve" font-weight="bold" x="11" y="71">+</text>
	<text font-family="Helvetica" font-size="9" fill="#000000" xml:space="preserve" x="25" y="71">IComparable getComparator(Class targetClass) </text>
	<text font-family="Helvetica" font-size="9" fill="#000000" xml:space="preserve" font-weight="bold" x="11" y="89">+</text>
	<text font-family="Helvetica" font-size="9" fill="#000000" xml:space="preserve" x="25" y="89">void unregister(Object targetObject) </text>
</g>
<g>
	<rect fill="#808080" stroke="none" stroke-opacity="1" x="762" y="620" width="3" height="65" />
	<rect fill="#808080" stroke="none" stroke-opacity="1" x="12" y="682" width="753" height="3" />
	<rect fill="#ffffc0" stroke="black" stroke-width="1" stroke-opacity="1" x="8" y="616" width="754" height="66" />
	<text font-family="Helvetica" font-size="9" fill="#000000" xml:space="preserve" font-weight="bold" text-anchor="middle" x="385" y="627">ReversibleOperationComparator</text>
	<line stroke="black" stroke-opacity="1" x1="8" y1="636" x2="762" y2="636" />
	<line stroke="black" stroke-opacity="1" x1="8" y1="644" x2="762" y2="644" />
	<text font-family="Helvetica" font-size="9" fill="#000000" xml:space="preserve" font-weight="bold" x="12" y="655">+</text>
	<text font-family="Helvetica" font-size="9" fill="#000000" xml:space="preserve" x="26" y="655">ReversibleOperationComparator(EvaluationManager evaluationManager, ReversibleOperationManager reversibleOperationManager) </text>
	<text font-family="Helvetica" font-size="9" fill="#000000" xml:space="preserve" font-weight="bold" x="12" y="673">+</text>
	<text font-family="Helvetica" font-size="9" fill="#000000" xml:space="preserve" x="26" y="673">boolean compare(Term refValue, AbstractValue testValue, Map&lt;TermWrapper, TermAssignment&gt; assignments) </text>
</g>
<g>
	<line stroke-dasharray="4,4" stroke="black" stroke-opacity="1" x1="766" y1="651" x2="879" y2="652" />
</g>
<g>
	<line stroke="black" stroke-opacity="1" x1="564" y1="55" x2="557" y2="49" />
	<line stroke="black" stroke-opacity="1" x1="564" y1="55" x2="558" y2="61" />
	<line stroke="black" stroke-opacity="1" x1="357" y1="56" x2="564" y2="55" />
</g>
<g>
	<line stroke="black" stroke-opacity="1" x1="121" y1="345" x2="27" y2="345" />
</g>
<g>
	<line stroke="black" stroke-opacity="1" x1="123" y1="256" x2="69" y2="256" />
</g>
<g>
	<text font-family="Helvetica" font-size="9" fill="#000000" xml:space="preserve" x="414" y="48">&lt;&lt;Map&gt;&gt;</text>
</g>
<g>
	<line stroke="black" stroke-opacity="1" x1="181" y1="102" x2="175" y2="108" />
	<line stroke="black" stroke-opacity="1" x1="181" y1="102" x2="187" y2="108" />
	<line stroke="black" stroke-opacity="1" x1="181" y1="136" x2="181" y2="102" />
</g>
<g>
	<line stroke="black" stroke-opacity="1" x1="28" y1="102" x2="21" y2="107" />
	<line stroke="black" stroke-opacity="1" x1="28" y1="102" x2="33" y2="108" />
	<line stroke="black" stroke-opacity="1" x1="27" y1="345" x2="28" y2="102" />
</g>
<g>
	<line stroke="black" stroke-opacity="1" x1="70" y1="102" x2="63" y2="107" />
	<line stroke="black" stroke-opacity="1" x1="70" y1="102" x2="75" y2="108" />
	<line stroke="black" stroke-opacity="1" x1="69" y1="256" x2="70" y2="102" />
</g>
<g>
	<line stroke-dasharray="4,4" stroke="black" stroke-opacity="1" x1="879" y1="652" x2="879" y2="95" />
	<line stroke="black" stroke-opacity="1" x1="879" y1="89" x2="873" y2="95" />
	<line stroke="black" stroke-opacity="1" x1="879" y1="89" x2="885" y2="95" />
	<line stroke="black" stroke-opacity="1" x1="873" y1="95" x2="885" y2="95" />
</g>
</svg>
